# xmcd
#
# Track frame offsets:
#	150
#	13479
#	24768
#	39922
#	54761
#	66253
#	79440
#	92983
#	107483
#	122909
#	135673
#	149337
#	174311
#	198215
#	211891
#	227481
#	237171
#	248620
#	264526
#	276154
#	288892
#
# Disc length: 4030 seconds
#
# Revision: 0
# Processed by: cddbd v1.5.2PL0 Copyright (c) Steve Scherf et al.
# Submitted via: EasyCDDAExtractor 4.6.0.1
#
DISCID=200fbc15
DTITLE=Dinah Washington - CD 2 The queen
DYEAR=1900
DGENRE=
TTITLE0=pillow blues
TTITLE1=I cried for you
TTITLE2=feel like I wanna cry
TTITLE3=am i blue
TTITLE4=my man's an undertaker
TTITLE5=short John
TTITLE6=big lond sudin' thing
TTITLE7=I don't hurt anymore
TTITLE8=no more
TTITLE9=teach me tonight
TTITLE10=I just couldn't stand it no more
TTITLE11=make the man love me
TTITLE12=blue gardenia
TTITLE13=there'll be some changes made
TTITLE14=willow weep for me
TTITLE15=there'll be a jubilee
TTITLE16=you let my love get cold
TTITLE17=you're crying
TTITLE18=somebody loves me
TTITLE19=blues down home
TTITLE20=black ans blue
EXTD=
EXTT0=
EXTT1=
EXTT2=
EXTT3=
EXTT4=
EXTT5=
EXTT6=
EXTT7=
EXTT8=
EXTT9=
EXTT10=
EXTT11=
EXTT12=
EXTT13=
EXTT14=
EXTT15=
EXTT16=
EXTT17=
EXTT18=
EXTT19=
EXTT20=
PLAYORDER=
